;Layer: Drill PTH
;EasyEDA v6.3.22, 2020-01-08T21:12:26+01:00
;b28a7935c23a4a24a3ae34985d5a7298,2d2f38d6ccaf4c36845c7e91a662877a,10
;Gerber Generator version 0.2
M48
METRIC,LZ,000.000
;Holesize 1 = 0.310 METRIC
T01C0.310
;Holesize 2 = 1.000 METRIC
T02C1.000
;Holesize 3 = 1.101 METRIC
T03C1.101
;Holesize 4 = 1.143 METRIC
T04C1.143
%
G05
G90
T01
X+038295Y+038826
X+015659Y+039118
X+008989Y+038145
X+031412Y+038879
X+019029Y+037091
X+006860Y+015113
X+004556Y+039639
X+018793Y+033530
X+018763Y+036299
X+031780Y+033522
X+020414Y+036609
X+031940Y+029197
X+031242Y+046228
T02
X+023876Y+015494
X+028956Y+015494
X+031496Y+015494
X+034036Y+015494
X+034036Y+020574
X+031496Y+020574
X+028956Y+020574
X+023876Y+020574
T03
X+013716Y+044196
X+013716Y+046736
X+013716Y+049276
X+013716Y+051816
T04
X+042672Y+046863
X+042672Y+043053
X+021082Y+005842
X+024892Y+005842
X+028702Y+005842
X+017272Y+005842
X+013462Y+005842
X+009652Y+005842
X+036315Y+005842
X+032505Y+005842
X+042672Y+012573
X+042672Y+016383
X+042672Y+035433
X+042672Y+039243
X+042672Y+027813
X+042672Y+031623
X+042672Y+020193
X+042672Y+024003
M30
