G04 Layer: BottomSilkLayer*
G04 EasyEDA v6.3.22, 2020-01-08T21:12:26+01:00*
G04 b28a7935c23a4a24a3ae34985d5a7298,2d2f38d6ccaf4c36845c7e91a662877a,10*
G04 Gerber Generator version 0.2*
G04 Scale: 100 percent, Rotated: No, Reflected: No *
G04 Dimensions in millimeters *
G04 leading zeros omitted , absolute positions ,3 integer and 3 decimal *
%FSLAX33Y33*%
%MOMM*%
G90*
G71D02*

%ADD13C,0.399999*%
%ADD47C,0.203200*%

%LPD*%
G54D13*
G01X32045Y44450D02*
G01X32045Y42510D01*
G01X32045Y44450D02*
G01X30844Y44450D01*
G01X32045Y43526D02*
G01X31306Y43526D01*
G01X32045Y42510D02*
G01X30844Y42510D01*
G01X28942Y44172D02*
G01X29126Y44357D01*
G01X29404Y44450D01*
G01X29773Y44450D01*
G01X30050Y44357D01*
G01X30235Y44172D01*
G01X30235Y43988D01*
G01X30142Y43803D01*
G01X30050Y43711D01*
G01X29865Y43618D01*
G01X29311Y43434D01*
G01X29126Y43341D01*
G01X29034Y43249D01*
G01X28942Y43064D01*
G01X28942Y42787D01*
G01X29126Y42602D01*
G01X29404Y42510D01*
G01X29773Y42510D01*
G01X30050Y42602D01*
G01X30235Y42787D01*
G01X28332Y44450D02*
G01X28332Y42510D01*
G01X28332Y44450D02*
G01X27501Y44450D01*
G01X27224Y44357D01*
G01X27131Y44265D01*
G01X27039Y44080D01*
G01X27039Y43803D01*
G01X27131Y43618D01*
G01X27224Y43526D01*
G01X27501Y43434D01*
G01X28332Y43434D01*
G01X26429Y43341D02*
G01X24767Y43341D01*
G01X24157Y44450D02*
G01X24157Y42510D01*
G01X24157Y44450D02*
G01X23326Y44450D01*
G01X23049Y44357D01*
G01X22957Y44265D01*
G01X22864Y44080D01*
G01X22864Y43895D01*
G01X22957Y43711D01*
G01X23049Y43618D01*
G01X23326Y43526D01*
G01X24157Y43526D01*
G01X23511Y43526D02*
G01X22864Y42510D01*
G01X22255Y44450D02*
G01X22255Y42510D01*
G01X22255Y44450D02*
G01X21054Y44450D01*
G01X22255Y43526D02*
G01X21516Y43526D01*
G01X20444Y44450D02*
G01X20444Y42510D01*
G01X19835Y44450D02*
G01X19835Y42510D01*
G01X19835Y44450D02*
G01X19188Y44450D01*
G01X18911Y44357D01*
G01X18726Y44172D01*
G01X18634Y43988D01*
G01X18542Y43711D01*
G01X18542Y43249D01*
G01X18634Y42972D01*
G01X18726Y42787D01*
G01X18911Y42602D01*
G01X19188Y42510D01*
G01X19835Y42510D01*
G01X32766Y41240D02*
G01X32766Y39300D01*
G01X32766Y41240D02*
G01X31934Y41240D01*
G01X31657Y41148D01*
G01X31565Y41055D01*
G01X31472Y40870D01*
G01X31472Y40686D01*
G01X31565Y40501D01*
G01X31657Y40409D01*
G01X31934Y40316D01*
G01X32766Y40316D02*
G01X31934Y40316D01*
G01X31657Y40224D01*
G01X31565Y40132D01*
G01X31472Y39947D01*
G01X31472Y39670D01*
G01X31565Y39485D01*
G01X31657Y39393D01*
G01X31934Y39300D01*
G01X32766Y39300D01*
G01X30863Y41240D02*
G01X30863Y39300D01*
G01X30253Y40593D02*
G01X30253Y39670D01*
G01X30161Y39393D01*
G01X29976Y39300D01*
G01X29699Y39300D01*
G01X29514Y39393D01*
G01X29237Y39670D01*
G01X29237Y40593D02*
G01X29237Y39300D01*
G01X28628Y40039D02*
G01X27519Y40039D01*
G01X27519Y40224D01*
G01X27612Y40409D01*
G01X27704Y40501D01*
G01X27889Y40593D01*
G01X28166Y40593D01*
G01X28351Y40501D01*
G01X28535Y40316D01*
G01X28628Y40039D01*
G01X28628Y39854D01*
G01X28535Y39577D01*
G01X28351Y39393D01*
G01X28166Y39300D01*
G01X27889Y39300D01*
G01X27704Y39393D01*
G01X27519Y39577D01*
G01X25487Y41240D02*
G01X25487Y39300D01*
G01X25487Y41240D02*
G01X24656Y41240D01*
G01X24379Y41148D01*
G01X24287Y41055D01*
G01X24194Y40870D01*
G01X24194Y40686D01*
G01X24287Y40501D01*
G01X24379Y40409D01*
G01X24656Y40316D01*
G01X25487Y40316D02*
G01X24656Y40316D01*
G01X24379Y40224D01*
G01X24287Y40132D01*
G01X24194Y39947D01*
G01X24194Y39670D01*
G01X24287Y39485D01*
G01X24379Y39393D01*
G01X24656Y39300D01*
G01X25487Y39300D01*
G01X23123Y40593D02*
G01X23308Y40501D01*
G01X23492Y40316D01*
G01X23585Y40039D01*
G01X23585Y39854D01*
G01X23492Y39577D01*
G01X23308Y39393D01*
G01X23123Y39300D01*
G01X22846Y39300D01*
G01X22661Y39393D01*
G01X22476Y39577D01*
G01X22384Y39854D01*
G01X22384Y40039D01*
G01X22476Y40316D01*
G01X22661Y40501D01*
G01X22846Y40593D01*
G01X23123Y40593D01*
G01X20666Y40593D02*
G01X20666Y39300D01*
G01X20666Y40316D02*
G01X20851Y40501D01*
G01X21035Y40593D01*
G01X21312Y40593D01*
G01X21497Y40501D01*
G01X21682Y40316D01*
G01X21774Y40039D01*
G01X21774Y39854D01*
G01X21682Y39577D01*
G01X21497Y39393D01*
G01X21312Y39300D01*
G01X21035Y39300D01*
G01X20851Y39393D01*
G01X20666Y39577D01*
G01X20056Y40593D02*
G01X20056Y39300D01*
G01X20056Y40039D02*
G01X19964Y40316D01*
G01X19779Y40501D01*
G01X19594Y40593D01*
G01X19317Y40593D01*
G01X17599Y41240D02*
G01X17599Y39300D01*
G01X17599Y40316D02*
G01X17784Y40501D01*
G01X17969Y40593D01*
G01X18246Y40593D01*
G01X18431Y40501D01*
G01X18615Y40316D01*
G01X18708Y40039D01*
G01X18708Y39854D01*
G01X18615Y39577D01*
G01X18431Y39393D01*
G01X18246Y39300D01*
G01X17969Y39300D01*
G01X17784Y39393D01*
G01X17599Y39577D01*
G54D47*
G01X39116Y35761D02*
G01X39116Y34520D01*
G01X39116Y35761D02*
G01X38584Y35761D01*
G01X38406Y35701D01*
G01X38347Y35642D01*
G01X38288Y35524D01*
G01X38288Y35347D01*
G01X38347Y35229D01*
G01X38406Y35170D01*
G01X38584Y35111D01*
G01X39116Y35111D01*
G01X37603Y35347D02*
G01X37721Y35288D01*
G01X37839Y35170D01*
G01X37898Y34992D01*
G01X37898Y34874D01*
G01X37839Y34697D01*
G01X37721Y34579D01*
G01X37603Y34520D01*
G01X37426Y34520D01*
G01X37307Y34579D01*
G01X37189Y34697D01*
G01X37130Y34874D01*
G01X37130Y34992D01*
G01X37189Y35170D01*
G01X37307Y35288D01*
G01X37426Y35347D01*
G01X37603Y35347D01*
G01X36740Y35347D02*
G01X36504Y34520D01*
G01X36267Y35347D02*
G01X36504Y34520D01*
G01X36267Y35347D02*
G01X36031Y34520D01*
G01X35795Y35347D02*
G01X36031Y34520D01*
G01X35405Y34992D02*
G01X34696Y34992D01*
G01X34696Y35111D01*
G01X34755Y35229D01*
G01X34814Y35288D01*
G01X34932Y35347D01*
G01X35109Y35347D01*
G01X35227Y35288D01*
G01X35346Y35170D01*
G01X35405Y34992D01*
G01X35405Y34874D01*
G01X35346Y34697D01*
G01X35227Y34579D01*
G01X35109Y34520D01*
G01X34932Y34520D01*
G01X34814Y34579D01*
G01X34696Y34697D01*
G01X34306Y35347D02*
G01X34306Y34520D01*
G01X34306Y34992D02*
G01X34246Y35170D01*
G01X34128Y35288D01*
G01X34010Y35347D01*
G01X33833Y35347D01*
G01X33443Y34992D02*
G01X32734Y34992D01*
G01X32734Y35111D01*
G01X32793Y35229D01*
G01X32852Y35288D01*
G01X32970Y35347D01*
G01X33147Y35347D01*
G01X33266Y35288D01*
G01X33384Y35170D01*
G01X33443Y34992D01*
G01X33443Y34874D01*
G01X33384Y34697D01*
G01X33266Y34579D01*
G01X33147Y34520D01*
G01X32970Y34520D01*
G01X32852Y34579D01*
G01X32734Y34697D01*
G01X31635Y35761D02*
G01X31635Y34520D01*
G01X31635Y35170D02*
G01X31753Y35288D01*
G01X31871Y35347D01*
G01X32048Y35347D01*
G01X32166Y35288D01*
G01X32285Y35170D01*
G01X32344Y34992D01*
G01X32344Y34874D01*
G01X32285Y34697D01*
G01X32166Y34579D01*
G01X32048Y34520D01*
G01X31871Y34520D01*
G01X31753Y34579D01*
G01X31635Y34697D01*
G01X30335Y35761D02*
G01X30335Y34520D01*
G01X30335Y35170D02*
G01X30216Y35288D01*
G01X30098Y35347D01*
G01X29921Y35347D01*
G01X29803Y35288D01*
G01X29685Y35170D01*
G01X29626Y34992D01*
G01X29626Y34874D01*
G01X29685Y34697D01*
G01X29803Y34579D01*
G01X29921Y34520D01*
G01X30098Y34520D01*
G01X30216Y34579D01*
G01X30335Y34697D01*
G01X29176Y35347D02*
G01X28822Y34520D01*
G01X28467Y35347D02*
G01X28822Y34520D01*
G01X28940Y34283D01*
G01X29058Y34165D01*
G01X29176Y34106D01*
G01X29236Y34106D01*
G01X26281Y35288D02*
G01X26340Y35406D01*
G01X26458Y35465D01*
G01X26636Y35465D01*
G01X26754Y35406D01*
G01X26813Y35347D01*
G01X26872Y35170D01*
G01X26872Y34992D01*
G01X26813Y34874D01*
G01X26695Y34815D01*
G01X26517Y34815D01*
G01X26399Y34874D01*
G01X26340Y34992D01*
G01X26636Y35465D02*
G01X26754Y35347D01*
G01X26813Y35170D01*
G01X26813Y34992D01*
G01X26754Y34874D01*
G01X26695Y34815D01*
G01X26281Y35465D02*
G01X26340Y34992D01*
G01X26340Y34874D01*
G01X26222Y34815D01*
G01X26104Y34815D01*
G01X25986Y34933D01*
G01X25926Y35111D01*
G01X25926Y35229D01*
G01X25986Y35406D01*
G01X26045Y35524D01*
G01X26163Y35642D01*
G01X26281Y35701D01*
G01X26458Y35761D01*
G01X26636Y35761D01*
G01X26813Y35701D01*
G01X26931Y35642D01*
G01X27049Y35524D01*
G01X27108Y35406D01*
G01X27167Y35229D01*
G01X27167Y35052D01*
G01X27108Y34874D01*
G01X27049Y34756D01*
G01X26931Y34638D01*
G01X26813Y34579D01*
G01X26636Y34520D01*
G01X26458Y34520D01*
G01X26281Y34579D01*
G01X26163Y34638D01*
G01X26104Y34697D01*
G01X26222Y35465D02*
G01X26281Y34992D01*
G01X26281Y34874D01*
G01X26222Y34815D01*
G01X25536Y35347D02*
G01X25536Y34520D01*
G01X25536Y34992D02*
G01X25477Y35170D01*
G01X25359Y35288D01*
G01X25241Y35347D01*
G01X25064Y35347D01*
G01X24674Y35347D02*
G01X24674Y34520D01*
G01X24674Y35111D02*
G01X24496Y35288D01*
G01X24378Y35347D01*
G01X24201Y35347D01*
G01X24083Y35288D01*
G01X24024Y35111D01*
G01X24024Y34520D01*
G01X23634Y34992D02*
G01X22925Y34992D01*
G01X22925Y35111D01*
G01X22984Y35229D01*
G01X23043Y35288D01*
G01X23161Y35347D01*
G01X23338Y35347D01*
G01X23456Y35288D01*
G01X23575Y35170D01*
G01X23634Y34992D01*
G01X23634Y34874D01*
G01X23575Y34697D01*
G01X23456Y34579D01*
G01X23338Y34520D01*
G01X23161Y34520D01*
G01X23043Y34579D01*
G01X22925Y34697D01*
G01X22535Y35347D02*
G01X22535Y34756D01*
G01X22476Y34579D01*
G01X22357Y34520D01*
G01X22180Y34520D01*
G01X22062Y34579D01*
G01X21885Y34756D01*
G01X21885Y35347D02*
G01X21885Y34520D01*
G01X21495Y35347D02*
G01X21495Y34520D01*
G01X21495Y34992D02*
G01X21436Y35170D01*
G01X21317Y35288D01*
G01X21199Y35347D01*
G01X21022Y35347D01*
G01X20632Y35761D02*
G01X20573Y35701D01*
G01X20514Y35761D01*
G01X20573Y35820D01*
G01X20632Y35761D01*
G01X20573Y35347D02*
G01X20573Y34520D01*
G01X20124Y35347D02*
G01X20124Y34520D01*
G01X20124Y35111D02*
G01X19946Y35288D01*
G01X19828Y35347D01*
G01X19651Y35347D01*
G01X19533Y35288D01*
G01X19474Y35111D01*
G01X19474Y34520D01*
G01X19084Y35761D02*
G01X19084Y34520D01*
G01X18493Y35347D02*
G01X19084Y34756D01*
G01X18847Y34992D02*
G01X18434Y34520D01*
G01X16247Y35288D02*
G01X16306Y35406D01*
G01X16425Y35465D01*
G01X16602Y35465D01*
G01X16720Y35406D01*
G01X16779Y35347D01*
G01X16838Y35170D01*
G01X16838Y34992D01*
G01X16779Y34874D01*
G01X16661Y34815D01*
G01X16484Y34815D01*
G01X16366Y34874D01*
G01X16306Y34992D01*
G01X16602Y35465D02*
G01X16720Y35347D01*
G01X16779Y35170D01*
G01X16779Y34992D01*
G01X16720Y34874D01*
G01X16661Y34815D01*
G01X16247Y35465D02*
G01X16306Y34992D01*
G01X16306Y34874D01*
G01X16188Y34815D01*
G01X16070Y34815D01*
G01X15952Y34933D01*
G01X15893Y35111D01*
G01X15893Y35229D01*
G01X15952Y35406D01*
G01X16011Y35524D01*
G01X16129Y35642D01*
G01X16247Y35701D01*
G01X16425Y35761D01*
G01X16602Y35761D01*
G01X16779Y35701D01*
G01X16897Y35642D01*
G01X17016Y35524D01*
G01X17075Y35406D01*
G01X17134Y35229D01*
G01X17134Y35052D01*
G01X17075Y34874D01*
G01X17016Y34756D01*
G01X16897Y34638D01*
G01X16779Y34579D01*
G01X16602Y34520D01*
G01X16425Y34520D01*
G01X16247Y34579D01*
G01X16129Y34638D01*
G01X16070Y34697D01*
G01X16188Y35465D02*
G01X16247Y34992D01*
G01X16247Y34874D01*
G01X16188Y34815D01*
G01X15326Y35761D02*
G01X15326Y34756D01*
G01X15266Y34579D01*
G01X15148Y34520D01*
G01X15030Y34520D01*
G01X15503Y35347D02*
G01X15089Y35347D01*
G01X14640Y35761D02*
G01X14640Y34520D01*
G01X14640Y35111D02*
G01X14463Y35288D01*
G01X14345Y35347D01*
G01X14167Y35347D01*
G01X14049Y35288D01*
G01X13990Y35111D01*
G01X13990Y34520D01*
G01X13600Y35347D02*
G01X13600Y34756D01*
G01X13541Y34579D01*
G01X13423Y34520D01*
G01X13246Y34520D01*
G01X13127Y34579D01*
G01X12950Y34756D01*
G01X12950Y35347D02*
G01X12950Y34520D01*
G01X12560Y35347D02*
G01X12560Y34520D01*
G01X12560Y35111D02*
G01X12383Y35288D01*
G01X12265Y35347D01*
G01X12087Y35347D01*
G01X11969Y35288D01*
G01X11910Y35111D01*
G01X11910Y34520D01*
G01X10811Y35761D02*
G01X10811Y34520D01*
G01X10811Y35170D02*
G01X10929Y35288D01*
G01X11047Y35347D01*
G01X11225Y35347D01*
G01X11343Y35288D01*
G01X11461Y35170D01*
G01X11520Y34992D01*
G01X11520Y34874D01*
G01X11461Y34697D01*
G01X11343Y34579D01*
G01X11225Y34520D01*
G01X11047Y34520D01*
G01X10929Y34579D01*
G01X10811Y34697D01*
G01X10421Y34992D02*
G01X9712Y34992D01*
G01X9712Y35111D01*
G01X9771Y35229D01*
G01X9830Y35288D01*
G01X9948Y35347D01*
G01X10126Y35347D01*
G01X10244Y35288D01*
G01X10362Y35170D01*
G01X10421Y34992D01*
G01X10421Y34874D01*
G01X10362Y34697D01*
G01X10244Y34579D01*
G01X10126Y34520D01*
G01X9948Y34520D01*
G01X9830Y34579D01*
G01X9712Y34697D01*
G01X9322Y35347D02*
G01X9322Y34520D01*
G01X9322Y34992D02*
G01X9263Y35170D01*
G01X9145Y35288D01*
G01X9026Y35347D01*
G01X8849Y35347D01*
G01X7750Y35347D02*
G01X7750Y34520D01*
G01X7750Y35170D02*
G01X7868Y35288D01*
G01X7986Y35347D01*
G01X8164Y35347D01*
G01X8282Y35288D01*
G01X8400Y35170D01*
G01X8459Y34992D01*
G01X8459Y34874D01*
G01X8400Y34697D01*
G01X8282Y34579D01*
G01X8164Y34520D01*
G01X7986Y34520D01*
G01X7868Y34579D01*
G01X7750Y34697D01*
G01X6651Y35170D02*
G01X6769Y35288D01*
G01X6887Y35347D01*
G01X7065Y35347D01*
G01X7183Y35288D01*
G01X7301Y35170D01*
G01X7360Y34992D01*
G01X7360Y34874D01*
G01X7301Y34697D01*
G01X7183Y34579D01*
G01X7065Y34520D01*
G01X6887Y34520D01*
G01X6769Y34579D01*
G01X6651Y34697D01*
G01X6261Y34992D02*
G01X5552Y34992D01*
G01X5552Y35111D01*
G01X5611Y35229D01*
G01X5670Y35288D01*
G01X5788Y35347D01*
G01X5966Y35347D01*
G01X6084Y35288D01*
G01X6202Y35170D01*
G01X6261Y34992D01*
G01X6261Y34874D01*
G01X6202Y34697D01*
G01X6084Y34579D01*
G01X5966Y34520D01*
G01X5788Y34520D01*
G01X5670Y34579D01*
G01X5552Y34697D01*
G01X38229Y32972D02*
G01X38288Y33090D01*
G01X38406Y33149D01*
G01X38584Y33149D01*
G01X38702Y33090D01*
G01X38761Y33031D01*
G01X38820Y32854D01*
G01X38820Y32676D01*
G01X38761Y32558D01*
G01X38643Y32499D01*
G01X38466Y32499D01*
G01X38347Y32558D01*
G01X38288Y32676D01*
G01X38584Y33149D02*
G01X38702Y33031D01*
G01X38761Y32854D01*
G01X38761Y32676D01*
G01X38702Y32558D01*
G01X38643Y32499D01*
G01X38229Y33149D02*
G01X38288Y32676D01*
G01X38288Y32558D01*
G01X38170Y32499D01*
G01X38052Y32499D01*
G01X37934Y32617D01*
G01X37875Y32795D01*
G01X37875Y32913D01*
G01X37934Y33090D01*
G01X37993Y33208D01*
G01X38111Y33326D01*
G01X38229Y33385D01*
G01X38406Y33445D01*
G01X38584Y33445D01*
G01X38761Y33385D01*
G01X38879Y33326D01*
G01X38997Y33208D01*
G01X39056Y33090D01*
G01X39116Y32913D01*
G01X39116Y32736D01*
G01X39056Y32558D01*
G01X38997Y32440D01*
G01X38879Y32322D01*
G01X38761Y32263D01*
G01X38584Y32204D01*
G01X38406Y32204D01*
G01X38229Y32263D01*
G01X38111Y32322D01*
G01X38052Y32381D01*
G01X38170Y33149D02*
G01X38229Y32676D01*
G01X38229Y32558D01*
G01X38170Y32499D01*
G01X36835Y33031D02*
G01X37485Y32204D01*
G01X37485Y33031D02*
G01X36835Y33031D01*
G01X37485Y32204D02*
G01X36835Y32204D01*
G01X36445Y32676D02*
G01X35736Y32676D01*
G01X35736Y32795D01*
G01X35795Y32913D01*
G01X35854Y32972D01*
G01X35972Y33031D01*
G01X36149Y33031D01*
G01X36267Y32972D01*
G01X36386Y32854D01*
G01X36445Y32676D01*
G01X36445Y32558D01*
G01X36386Y32381D01*
G01X36267Y32263D01*
G01X36149Y32204D01*
G01X35972Y32204D01*
G01X35854Y32263D01*
G01X35736Y32381D01*
G01X35346Y33031D02*
G01X35346Y32204D01*
G01X35346Y32676D02*
G01X35286Y32854D01*
G01X35168Y32972D01*
G01X35050Y33031D01*
G01X34873Y33031D01*
G01X33774Y33031D02*
G01X33774Y32204D01*
G01X33774Y32854D02*
G01X33892Y32972D01*
G01X34010Y33031D01*
G01X34187Y33031D01*
G01X34306Y32972D01*
G01X34424Y32854D01*
G01X34483Y32676D01*
G01X34483Y32558D01*
G01X34424Y32381D01*
G01X34306Y32263D01*
G01X34187Y32204D01*
G01X34010Y32204D01*
G01X33892Y32263D01*
G01X33774Y32381D01*
G01X33384Y33445D02*
G01X33325Y33385D01*
G01X33266Y33445D01*
G01X33325Y33504D01*
G01X33384Y33445D01*
G01X33325Y33031D02*
G01X33325Y32204D01*
G01X32876Y32676D02*
G01X32166Y32676D01*
G01X32166Y32795D01*
G01X32226Y32913D01*
G01X32285Y32972D01*
G01X32403Y33031D01*
G01X32580Y33031D01*
G01X32698Y32972D01*
G01X32816Y32854D01*
G01X32876Y32676D01*
G01X32876Y32558D01*
G01X32816Y32381D01*
G01X32698Y32263D01*
G01X32580Y32204D01*
G01X32403Y32204D01*
G01X32285Y32263D01*
G01X32166Y32381D01*
G01X31776Y33031D02*
G01X31776Y32204D01*
G01X31776Y32795D02*
G01X31599Y32972D01*
G01X31481Y33031D01*
G01X31304Y33031D01*
G01X31186Y32972D01*
G01X31126Y32795D01*
G01X31126Y32204D01*
G01X28940Y32972D02*
G01X28999Y33090D01*
G01X29117Y33149D01*
G01X29295Y33149D01*
G01X29413Y33090D01*
G01X29472Y33031D01*
G01X29531Y32854D01*
G01X29531Y32676D01*
G01X29472Y32558D01*
G01X29354Y32499D01*
G01X29176Y32499D01*
G01X29058Y32558D01*
G01X28999Y32676D01*
G01X29295Y33149D02*
G01X29413Y33031D01*
G01X29472Y32854D01*
G01X29472Y32676D01*
G01X29413Y32558D01*
G01X29354Y32499D01*
G01X28940Y33149D02*
G01X28999Y32676D01*
G01X28999Y32558D01*
G01X28881Y32499D01*
G01X28763Y32499D01*
G01X28645Y32617D01*
G01X28586Y32795D01*
G01X28586Y32913D01*
G01X28645Y33090D01*
G01X28704Y33208D01*
G01X28822Y33326D01*
G01X28940Y33385D01*
G01X29117Y33445D01*
G01X29295Y33445D01*
G01X29472Y33385D01*
G01X29590Y33326D01*
G01X29708Y33208D01*
G01X29767Y33090D01*
G01X29826Y32913D01*
G01X29826Y32736D01*
G01X29767Y32558D01*
G01X29708Y32440D01*
G01X29590Y32322D01*
G01X29472Y32263D01*
G01X29295Y32204D01*
G01X29117Y32204D01*
G01X28940Y32263D01*
G01X28822Y32322D01*
G01X28763Y32381D01*
G01X28881Y33149D02*
G01X28940Y32676D01*
G01X28940Y32558D01*
G01X28881Y32499D01*
G01X28196Y33031D02*
G01X28196Y32204D01*
G01X28196Y32795D02*
G01X28018Y32972D01*
G01X27900Y33031D01*
G01X27723Y33031D01*
G01X27605Y32972D01*
G01X27546Y32795D01*
G01X27546Y32204D01*
G01X26446Y33031D02*
G01X26446Y32204D01*
G01X26446Y32854D02*
G01X26565Y32972D01*
G01X26683Y33031D01*
G01X26860Y33031D01*
G01X26978Y32972D01*
G01X27096Y32854D01*
G01X27156Y32676D01*
G01X27156Y32558D01*
G01X27096Y32381D01*
G01X26978Y32263D01*
G01X26860Y32204D01*
G01X26683Y32204D01*
G01X26565Y32263D01*
G01X26446Y32381D01*
G01X26056Y33031D02*
G01X26056Y32204D01*
G01X26056Y32676D02*
G01X25997Y32854D01*
G01X25879Y32972D01*
G01X25761Y33031D01*
G01X25584Y33031D01*
G01X24485Y33445D02*
G01X24485Y32204D01*
G01X24485Y32854D02*
G01X24603Y32972D01*
G01X24721Y33031D01*
G01X24898Y33031D01*
G01X25016Y32972D01*
G01X25135Y32854D01*
G01X25194Y32676D01*
G01X25194Y32558D01*
G01X25135Y32381D01*
G01X25016Y32263D01*
G01X24898Y32204D01*
G01X24721Y32204D01*
G01X24603Y32263D01*
G01X24485Y32381D01*
G01X24095Y32676D02*
G01X23386Y32676D01*
G01X23386Y32795D01*
G01X23445Y32913D01*
G01X23504Y32972D01*
G01X23622Y33031D01*
G01X23799Y33031D01*
G01X23917Y32972D01*
G01X24036Y32854D01*
G01X24095Y32676D01*
G01X24095Y32558D01*
G01X24036Y32381D01*
G01X23917Y32263D01*
G01X23799Y32204D01*
G01X23622Y32204D01*
G01X23504Y32263D01*
G01X23386Y32381D01*
G01X22996Y33031D02*
G01X22641Y32204D01*
G01X22286Y33031D02*
G01X22641Y32204D01*
G01X20100Y32972D02*
G01X20159Y33090D01*
G01X20277Y33149D01*
G01X20455Y33149D01*
G01X20573Y33090D01*
G01X20632Y33031D01*
G01X20691Y32854D01*
G01X20691Y32676D01*
G01X20632Y32558D01*
G01X20514Y32499D01*
G01X20336Y32499D01*
G01X20218Y32558D01*
G01X20159Y32676D01*
G01X20455Y33149D02*
G01X20573Y33031D01*
G01X20632Y32854D01*
G01X20632Y32676D01*
G01X20573Y32558D01*
G01X20514Y32499D01*
G01X20100Y33149D02*
G01X20159Y32676D01*
G01X20159Y32558D01*
G01X20041Y32499D01*
G01X19923Y32499D01*
G01X19805Y32617D01*
G01X19746Y32795D01*
G01X19746Y32913D01*
G01X19805Y33090D01*
G01X19864Y33208D01*
G01X19982Y33326D01*
G01X20100Y33385D01*
G01X20277Y33445D01*
G01X20455Y33445D01*
G01X20632Y33385D01*
G01X20750Y33326D01*
G01X20868Y33208D01*
G01X20927Y33090D01*
G01X20986Y32913D01*
G01X20986Y32736D01*
G01X20927Y32558D01*
G01X20868Y32440D01*
G01X20750Y32322D01*
G01X20632Y32263D01*
G01X20455Y32204D01*
G01X20277Y32204D01*
G01X20100Y32263D01*
G01X19982Y32322D01*
G01X19923Y32381D01*
G01X20041Y33149D02*
G01X20100Y32676D01*
G01X20100Y32558D01*
G01X20041Y32499D01*
G01X19356Y33031D02*
G01X19356Y32204D01*
G01X19356Y32676D02*
G01X19296Y32854D01*
G01X19178Y32972D01*
G01X19060Y33031D01*
G01X18883Y33031D01*
G01X18197Y33031D02*
G01X18316Y32972D01*
G01X18434Y32854D01*
G01X18493Y32676D01*
G01X18493Y32558D01*
G01X18434Y32381D01*
G01X18316Y32263D01*
G01X18197Y32204D01*
G01X18020Y32204D01*
G01X17902Y32263D01*
G01X17784Y32381D01*
G01X17725Y32558D01*
G01X17725Y32676D01*
G01X17784Y32854D01*
G01X17902Y32972D01*
G01X18020Y33031D01*
G01X18197Y33031D01*
G01X17335Y33031D02*
G01X17335Y32204D01*
G01X17335Y32795D02*
G01X17157Y32972D01*
G01X17039Y33031D01*
G01X16862Y33031D01*
G01X16744Y32972D01*
G01X16685Y32795D01*
G01X16685Y32204D01*
G01X16685Y32795D02*
G01X16507Y32972D01*
G01X16389Y33031D01*
G01X16212Y33031D01*
G01X16094Y32972D01*
G01X16035Y32795D01*
G01X16035Y32204D01*
G01X14936Y33031D02*
G01X14936Y32204D01*
G01X14936Y32854D02*
G01X15054Y32972D01*
G01X15172Y33031D01*
G01X15349Y33031D01*
G01X15467Y32972D01*
G01X15586Y32854D01*
G01X15645Y32676D01*
G01X15645Y32558D01*
G01X15586Y32381D01*
G01X15467Y32263D01*
G01X15349Y32204D01*
G01X15172Y32204D01*
G01X15054Y32263D01*
G01X14936Y32381D01*
G01X14546Y33031D02*
G01X14546Y32204D01*
G01X14546Y32795D02*
G01X14368Y32972D01*
G01X14250Y33031D01*
G01X14073Y33031D01*
G01X13955Y32972D01*
G01X13896Y32795D01*
G01X13896Y32204D01*
G01X12856Y33031D02*
G01X13506Y32204D01*
G01X13506Y33031D02*
G01X12856Y33031D01*
G01X13506Y32204D02*
G01X12856Y32204D01*
G01X11756Y33031D02*
G01X11756Y32204D01*
G01X11756Y32854D02*
G01X11875Y32972D01*
G01X11993Y33031D01*
G01X12170Y33031D01*
G01X12288Y32972D01*
G01X12406Y32854D01*
G01X12466Y32676D01*
G01X12466Y32558D01*
G01X12406Y32381D01*
G01X12288Y32263D01*
G01X12170Y32204D01*
G01X11993Y32204D01*
G01X11875Y32263D01*
G01X11756Y32381D01*
G01X11366Y33031D02*
G01X11012Y32204D01*
G01X10657Y33031D02*
G01X11012Y32204D01*
G01X9558Y33031D02*
G01X9558Y32204D01*
G01X9558Y32854D02*
G01X9676Y32972D01*
G01X9795Y33031D01*
G01X9972Y33031D01*
G01X10090Y32972D01*
G01X10208Y32854D01*
G01X10267Y32676D01*
G01X10267Y32558D01*
G01X10208Y32381D01*
G01X10090Y32263D01*
G01X9972Y32204D01*
G01X9795Y32204D01*
G01X9676Y32263D01*
G01X9558Y32381D01*
G01X38229Y30656D02*
G01X38288Y30774D01*
G01X38406Y30833D01*
G01X38584Y30833D01*
G01X38702Y30774D01*
G01X38761Y30715D01*
G01X38820Y30538D01*
G01X38820Y30360D01*
G01X38761Y30242D01*
G01X38643Y30183D01*
G01X38466Y30183D01*
G01X38347Y30242D01*
G01X38288Y30360D01*
G01X38584Y30833D02*
G01X38702Y30715D01*
G01X38761Y30538D01*
G01X38761Y30360D01*
G01X38702Y30242D01*
G01X38643Y30183D01*
G01X38229Y30833D02*
G01X38288Y30360D01*
G01X38288Y30242D01*
G01X38170Y30183D01*
G01X38052Y30183D01*
G01X37934Y30301D01*
G01X37875Y30479D01*
G01X37875Y30597D01*
G01X37934Y30774D01*
G01X37993Y30892D01*
G01X38111Y31010D01*
G01X38229Y31069D01*
G01X38406Y31129D01*
G01X38584Y31129D01*
G01X38761Y31069D01*
G01X38879Y31010D01*
G01X38997Y30892D01*
G01X39056Y30774D01*
G01X39116Y30597D01*
G01X39116Y30420D01*
G01X39056Y30242D01*
G01X38997Y30124D01*
G01X38879Y30006D01*
G01X38761Y29947D01*
G01X38584Y29888D01*
G01X38406Y29888D01*
G01X38229Y29947D01*
G01X38111Y30006D01*
G01X38052Y30065D01*
G01X38170Y30833D02*
G01X38229Y30360D01*
G01X38229Y30242D01*
G01X38170Y30183D01*
G01X36776Y30715D02*
G01X36776Y29888D01*
G01X36776Y30538D02*
G01X36894Y30656D01*
G01X37012Y30715D01*
G01X37189Y30715D01*
G01X37307Y30656D01*
G01X37426Y30538D01*
G01X37485Y30360D01*
G01X37485Y30242D01*
G01X37426Y30065D01*
G01X37307Y29947D01*
G01X37189Y29888D01*
G01X37012Y29888D01*
G01X36894Y29947D01*
G01X36776Y30065D01*
G01X36386Y30715D02*
G01X36386Y29888D01*
G01X36386Y30360D02*
G01X36326Y30538D01*
G01X36208Y30656D01*
G01X36090Y30715D01*
G01X35913Y30715D01*
G01X34814Y31129D02*
G01X34814Y29888D01*
G01X34814Y30538D02*
G01X34932Y30656D01*
G01X35050Y30715D01*
G01X35227Y30715D01*
G01X35346Y30656D01*
G01X35464Y30538D01*
G01X35523Y30360D01*
G01X35523Y30242D01*
G01X35464Y30065D01*
G01X35346Y29947D01*
G01X35227Y29888D01*
G01X35050Y29888D01*
G01X34932Y29947D01*
G01X34814Y30065D01*
G01X34424Y30715D02*
G01X34424Y30124D01*
G01X34365Y29947D01*
G01X34246Y29888D01*
G01X34069Y29888D01*
G01X33951Y29947D01*
G01X33774Y30124D01*
G01X33774Y30715D02*
G01X33774Y29888D01*
G01X33384Y31129D02*
G01X33325Y31069D01*
G01X33266Y31129D01*
G01X33325Y31188D01*
G01X33384Y31129D01*
G01X33325Y30715D02*
G01X33325Y29888D01*
G01X32876Y30715D02*
G01X32876Y29888D01*
G01X32876Y30479D02*
G01X32698Y30656D01*
G01X32580Y30715D01*
G01X32403Y30715D01*
G01X32285Y30656D01*
G01X32226Y30479D01*
G01X32226Y29888D01*
G01X31540Y30715D02*
G01X31658Y30656D01*
G01X31776Y30538D01*
G01X31836Y30360D01*
G01X31836Y30242D01*
G01X31776Y30065D01*
G01X31658Y29947D01*
G01X31540Y29888D01*
G01X31363Y29888D01*
G01X31245Y29947D01*
G01X31126Y30065D01*
G01X31067Y30242D01*
G01X31067Y30360D01*
G01X31126Y30538D01*
G01X31245Y30656D01*
G01X31363Y30715D01*
G01X31540Y30715D01*
G01X30677Y30892D02*
G01X30559Y30951D01*
G01X30382Y31129D01*
G01X30382Y29888D01*
G01X29933Y30833D02*
G01X29933Y30892D01*
G01X29874Y31010D01*
G01X29815Y31069D01*
G01X29696Y31129D01*
G01X29460Y31129D01*
G01X29342Y31069D01*
G01X29283Y31010D01*
G01X29224Y30892D01*
G01X29224Y30774D01*
G01X29283Y30656D01*
G01X29401Y30479D01*
G01X29992Y29888D01*
G01X29165Y29888D01*
G01X26978Y30656D02*
G01X27037Y30774D01*
G01X27156Y30833D01*
G01X27333Y30833D01*
G01X27451Y30774D01*
G01X27510Y30715D01*
G01X27569Y30538D01*
G01X27569Y30360D01*
G01X27510Y30242D01*
G01X27392Y30183D01*
G01X27215Y30183D01*
G01X27096Y30242D01*
G01X27037Y30360D01*
G01X27333Y30833D02*
G01X27451Y30715D01*
G01X27510Y30538D01*
G01X27510Y30360D01*
G01X27451Y30242D01*
G01X27392Y30183D01*
G01X26978Y30833D02*
G01X27037Y30360D01*
G01X27037Y30242D01*
G01X26919Y30183D01*
G01X26801Y30183D01*
G01X26683Y30301D01*
G01X26624Y30479D01*
G01X26624Y30597D01*
G01X26683Y30774D01*
G01X26742Y30892D01*
G01X26860Y31010D01*
G01X26978Y31069D01*
G01X27156Y31129D01*
G01X27333Y31129D01*
G01X27510Y31069D01*
G01X27628Y31010D01*
G01X27746Y30892D01*
G01X27806Y30774D01*
G01X27865Y30597D01*
G01X27865Y30420D01*
G01X27806Y30242D01*
G01X27746Y30124D01*
G01X27628Y30006D01*
G01X27510Y29947D01*
G01X27333Y29888D01*
G01X27156Y29888D01*
G01X26978Y29947D01*
G01X26860Y30006D01*
G01X26801Y30065D01*
G01X26919Y30833D02*
G01X26978Y30360D01*
G01X26978Y30242D01*
G01X26919Y30183D01*
G01X26234Y31129D02*
G01X26234Y29888D01*
G01X26234Y31129D02*
G01X25702Y31129D01*
G01X25525Y31069D01*
G01X25466Y31010D01*
G01X25406Y30892D01*
G01X25406Y30715D01*
G01X25466Y30597D01*
G01X25525Y30538D01*
G01X25702Y30479D01*
G01X26234Y30479D01*
G01X24307Y30715D02*
G01X24307Y29888D01*
G01X24307Y30538D02*
G01X24426Y30656D01*
G01X24544Y30715D01*
G01X24721Y30715D01*
G01X24839Y30656D01*
G01X24957Y30538D01*
G01X25016Y30360D01*
G01X25016Y30242D01*
G01X24957Y30065D01*
G01X24839Y29947D01*
G01X24721Y29888D01*
G01X24544Y29888D01*
G01X24426Y29947D01*
G01X24307Y30065D01*
G01X23917Y31129D02*
G01X23917Y29888D01*
G01X23326Y30715D02*
G01X23917Y30124D01*
G01X23681Y30360D02*
G01X23267Y29888D01*
G01X22582Y30715D02*
G01X22700Y30656D01*
G01X22818Y30538D01*
G01X22877Y30360D01*
G01X22877Y30242D01*
G01X22818Y30065D01*
G01X22700Y29947D01*
G01X22582Y29888D01*
G01X22405Y29888D01*
G01X22286Y29947D01*
G01X22168Y30065D01*
G01X22109Y30242D01*
G01X22109Y30360D01*
G01X22168Y30538D01*
G01X22286Y30656D01*
G01X22405Y30715D01*
G01X22582Y30715D01*
G01X21660Y30833D02*
G01X21660Y30892D01*
G01X21601Y31010D01*
G01X21542Y31069D01*
G01X21424Y31129D01*
G01X21187Y31129D01*
G01X21069Y31069D01*
G01X21010Y31010D01*
G01X20951Y30892D01*
G01X20951Y30774D01*
G01X21010Y30656D01*
G01X21128Y30479D01*
G01X21719Y29888D01*
G01X20892Y29888D01*
G01X18706Y30656D02*
G01X18765Y30774D01*
G01X18883Y30833D01*
G01X19060Y30833D01*
G01X19178Y30774D01*
G01X19237Y30715D01*
G01X19296Y30538D01*
G01X19296Y30360D01*
G01X19237Y30242D01*
G01X19119Y30183D01*
G01X18942Y30183D01*
G01X18824Y30242D01*
G01X18765Y30360D01*
G01X19060Y30833D02*
G01X19178Y30715D01*
G01X19237Y30538D01*
G01X19237Y30360D01*
G01X19178Y30242D01*
G01X19119Y30183D01*
G01X18706Y30833D02*
G01X18765Y30360D01*
G01X18765Y30242D01*
G01X18646Y30183D01*
G01X18528Y30183D01*
G01X18410Y30301D01*
G01X18351Y30479D01*
G01X18351Y30597D01*
G01X18410Y30774D01*
G01X18469Y30892D01*
G01X18587Y31010D01*
G01X18706Y31069D01*
G01X18883Y31129D01*
G01X19060Y31129D01*
G01X19237Y31069D01*
G01X19356Y31010D01*
G01X19474Y30892D01*
G01X19533Y30774D01*
G01X19592Y30597D01*
G01X19592Y30420D01*
G01X19533Y30242D01*
G01X19474Y30124D01*
G01X19356Y30006D01*
G01X19237Y29947D01*
G01X19060Y29888D01*
G01X18883Y29888D01*
G01X18706Y29947D01*
G01X18587Y30006D01*
G01X18528Y30065D01*
G01X18646Y30833D02*
G01X18706Y30360D01*
G01X18706Y30242D01*
G01X18646Y30183D01*
G01X17961Y31129D02*
G01X17902Y31069D01*
G01X17843Y31129D01*
G01X17902Y31188D01*
G01X17961Y31129D01*
G01X17902Y30715D02*
G01X17902Y29888D01*
G01X17453Y31129D02*
G01X17453Y29888D01*
G01X17453Y31129D02*
G01X16921Y31129D01*
G01X16744Y31069D01*
G01X16685Y31010D01*
G01X16626Y30892D01*
G01X16626Y30774D01*
G01X16685Y30656D01*
G01X16744Y30597D01*
G01X16921Y30538D01*
G01X17453Y30538D02*
G01X16921Y30538D01*
G01X16744Y30479D01*
G01X16685Y30420D01*
G01X16626Y30301D01*
G01X16626Y30124D01*
G01X16685Y30006D01*
G01X16744Y29947D01*
G01X16921Y29888D01*
G01X17453Y29888D01*
G01X15940Y30715D02*
G01X16058Y30656D01*
G01X16176Y30538D01*
G01X16236Y30360D01*
G01X16236Y30242D01*
G01X16176Y30065D01*
G01X16058Y29947D01*
G01X15940Y29888D01*
G01X15763Y29888D01*
G01X15645Y29947D01*
G01X15526Y30065D01*
G01X15467Y30242D01*
G01X15467Y30360D01*
G01X15526Y30538D01*
G01X15645Y30656D01*
G01X15763Y30715D01*
G01X15940Y30715D01*
G01X15077Y31129D02*
G01X15077Y29888D01*
G01X15077Y30538D02*
G01X14959Y30656D01*
G01X14841Y30715D01*
G01X14664Y30715D01*
G01X14546Y30656D01*
G01X14427Y30538D01*
G01X14368Y30360D01*
G01X14368Y30242D01*
G01X14427Y30065D01*
G01X14546Y29947D01*
G01X14664Y29888D01*
G01X14841Y29888D01*
G01X14959Y29947D01*
G01X15077Y30065D01*
G01X13978Y31129D02*
G01X13919Y31069D01*
G01X13860Y31129D01*
G01X13919Y31188D01*
G01X13978Y31129D01*
G01X13919Y30715D02*
G01X13919Y29888D01*
G01X13470Y31129D02*
G01X13470Y29888D01*
G01X12879Y30715D02*
G01X13470Y30124D01*
G01X13234Y30360D02*
G01X12820Y29888D01*
G01X38229Y28340D02*
G01X38288Y28458D01*
G01X38406Y28517D01*
G01X38584Y28517D01*
G01X38702Y28458D01*
G01X38761Y28399D01*
G01X38820Y28222D01*
G01X38820Y28044D01*
G01X38761Y27926D01*
G01X38643Y27867D01*
G01X38466Y27867D01*
G01X38347Y27926D01*
G01X38288Y28044D01*
G01X38584Y28517D02*
G01X38702Y28399D01*
G01X38761Y28222D01*
G01X38761Y28044D01*
G01X38702Y27926D01*
G01X38643Y27867D01*
G01X38229Y28517D02*
G01X38288Y28044D01*
G01X38288Y27926D01*
G01X38170Y27867D01*
G01X38052Y27867D01*
G01X37934Y27985D01*
G01X37875Y28163D01*
G01X37875Y28281D01*
G01X37934Y28458D01*
G01X37993Y28576D01*
G01X38111Y28694D01*
G01X38229Y28753D01*
G01X38406Y28813D01*
G01X38584Y28813D01*
G01X38761Y28753D01*
G01X38879Y28694D01*
G01X38997Y28576D01*
G01X39056Y28458D01*
G01X39116Y28281D01*
G01X39116Y28104D01*
G01X39056Y27926D01*
G01X38997Y27808D01*
G01X38879Y27690D01*
G01X38761Y27631D01*
G01X38584Y27572D01*
G01X38406Y27572D01*
G01X38229Y27631D01*
G01X38111Y27690D01*
G01X38052Y27749D01*
G01X38170Y28517D02*
G01X38229Y28044D01*
G01X38229Y27926D01*
G01X38170Y27867D01*
G01X37189Y28399D02*
G01X37307Y28340D01*
G01X37426Y28222D01*
G01X37485Y28044D01*
G01X37485Y27926D01*
G01X37426Y27749D01*
G01X37307Y27631D01*
G01X37189Y27572D01*
G01X37012Y27572D01*
G01X36894Y27631D01*
G01X36776Y27749D01*
G01X36716Y27926D01*
G01X36716Y28044D01*
G01X36776Y28222D01*
G01X36894Y28340D01*
G01X37012Y28399D01*
G01X37189Y28399D01*
G01X36326Y28399D02*
G01X36326Y27572D01*
G01X36326Y28163D02*
G01X36149Y28340D01*
G01X36031Y28399D01*
G01X35854Y28399D01*
G01X35736Y28340D01*
G01X35676Y28163D01*
G01X35676Y27572D01*
G01X35676Y28163D02*
G01X35499Y28340D01*
G01X35381Y28399D01*
G01X35204Y28399D01*
G01X35086Y28340D01*
G01X35026Y28163D01*
G01X35026Y27572D01*
G01X34636Y28044D02*
G01X33927Y28044D01*
G01X33927Y28163D01*
G01X33986Y28281D01*
G01X34046Y28340D01*
G01X34164Y28399D01*
G01X34341Y28399D01*
G01X34459Y28340D01*
G01X34577Y28222D01*
G01X34636Y28044D01*
G01X34636Y27926D01*
G01X34577Y27749D01*
G01X34459Y27631D01*
G01X34341Y27572D01*
G01X34164Y27572D01*
G01X34046Y27631D01*
G01X33927Y27749D01*
G01X33537Y28399D02*
G01X33537Y27572D01*
G01X33537Y28044D02*
G01X33478Y28222D01*
G01X33360Y28340D01*
G01X33242Y28399D01*
G01X33065Y28399D01*
G01X32025Y28222D02*
G01X32084Y28340D01*
G01X32261Y28399D01*
G01X32438Y28399D01*
G01X32616Y28340D01*
G01X32675Y28222D01*
G01X32616Y28104D01*
G01X32497Y28044D01*
G01X32202Y27985D01*
G01X32084Y27926D01*
G01X32025Y27808D01*
G01X32025Y27749D01*
G01X32084Y27631D01*
G01X32261Y27572D01*
G01X32438Y27572D01*
G01X32616Y27631D01*
G01X32675Y27749D01*
G01X31635Y28813D02*
G01X31576Y28753D01*
G01X31516Y28813D01*
G01X31576Y28872D01*
G01X31635Y28813D01*
G01X31576Y28399D02*
G01X31576Y27572D01*
G01X30417Y28399D02*
G01X30417Y27572D01*
G01X30417Y28222D02*
G01X30536Y28340D01*
G01X30654Y28399D01*
G01X30831Y28399D01*
G01X30949Y28340D01*
G01X31067Y28222D01*
G01X31126Y28044D01*
G01X31126Y27926D01*
G01X31067Y27749D01*
G01X30949Y27631D01*
G01X30831Y27572D01*
G01X30654Y27572D01*
G01X30536Y27631D01*
G01X30417Y27749D01*
G01X30027Y28399D02*
G01X30027Y27572D01*
G01X30027Y28044D02*
G01X29968Y28222D01*
G01X29850Y28340D01*
G01X29732Y28399D01*
G01X29555Y28399D01*
G01X27368Y28340D02*
G01X27427Y28458D01*
G01X27546Y28517D01*
G01X27723Y28517D01*
G01X27841Y28458D01*
G01X27900Y28399D01*
G01X27959Y28222D01*
G01X27959Y28044D01*
G01X27900Y27926D01*
G01X27782Y27867D01*
G01X27605Y27867D01*
G01X27486Y27926D01*
G01X27427Y28044D01*
G01X27723Y28517D02*
G01X27841Y28399D01*
G01X27900Y28222D01*
G01X27900Y28044D01*
G01X27841Y27926D01*
G01X27782Y27867D01*
G01X27368Y28517D02*
G01X27427Y28044D01*
G01X27427Y27926D01*
G01X27309Y27867D01*
G01X27191Y27867D01*
G01X27073Y27985D01*
G01X27014Y28163D01*
G01X27014Y28281D01*
G01X27073Y28458D01*
G01X27132Y28576D01*
G01X27250Y28694D01*
G01X27368Y28753D01*
G01X27546Y28813D01*
G01X27723Y28813D01*
G01X27900Y28753D01*
G01X28018Y28694D01*
G01X28136Y28576D01*
G01X28196Y28458D01*
G01X28255Y28281D01*
G01X28255Y28104D01*
G01X28196Y27926D01*
G01X28136Y27808D01*
G01X28018Y27690D01*
G01X27900Y27631D01*
G01X27723Y27572D01*
G01X27546Y27572D01*
G01X27368Y27631D01*
G01X27250Y27690D01*
G01X27191Y27749D01*
G01X27309Y28517D02*
G01X27368Y28044D01*
G01X27368Y27926D01*
G01X27309Y27867D01*
G01X26446Y28813D02*
G01X26446Y27808D01*
G01X26387Y27631D01*
G01X26269Y27572D01*
G01X26151Y27572D01*
G01X26624Y28399D02*
G01X26210Y28399D01*
G01X25761Y28044D02*
G01X25052Y28044D01*
G01X25052Y28163D01*
G01X25111Y28281D01*
G01X25170Y28340D01*
G01X25288Y28399D01*
G01X25466Y28399D01*
G01X25584Y28340D01*
G01X25702Y28222D01*
G01X25761Y28044D01*
G01X25761Y27926D01*
G01X25702Y27749D01*
G01X25584Y27631D01*
G01X25466Y27572D01*
G01X25288Y27572D01*
G01X25170Y27631D01*
G01X25052Y27749D01*
G01X24662Y28399D02*
G01X24662Y27572D01*
G01X24662Y28044D02*
G01X24603Y28222D01*
G01X24485Y28340D01*
G01X24366Y28399D01*
G01X24189Y28399D01*
G01X23799Y28813D02*
G01X23740Y28753D01*
G01X23681Y28813D01*
G01X23740Y28872D01*
G01X23799Y28813D01*
G01X23740Y28399D02*
G01X23740Y27572D01*
G01X22582Y28399D02*
G01X22582Y27572D01*
G01X22582Y28222D02*
G01X22700Y28340D01*
G01X22818Y28399D01*
G01X22996Y28399D01*
G01X23114Y28340D01*
G01X23232Y28222D01*
G01X23291Y28044D01*
G01X23291Y27926D01*
G01X23232Y27749D01*
G01X23114Y27631D01*
G01X22996Y27572D01*
G01X22818Y27572D01*
G01X22700Y27631D01*
G01X22582Y27749D01*
G01X22192Y28813D02*
G01X22192Y27572D01*
G01X21802Y28813D02*
G01X21802Y27572D01*
G01X38218Y24922D02*
G01X38218Y24122D01*
G01X38268Y23972D01*
G01X38318Y23922D01*
G01X38418Y23872D01*
G01X38568Y23872D01*
G01X38668Y23922D01*
G01X38218Y24772D02*
G01X38318Y24872D01*
G01X38418Y24922D01*
G01X38568Y24922D01*
G01X38668Y24872D01*
G01X38768Y24772D01*
G01X38818Y24622D01*
G01X38818Y24522D01*
G01X38768Y24372D01*
G01X38668Y24272D01*
G01X38568Y24222D01*
G01X38418Y24222D01*
G01X38318Y24272D01*
G01X38218Y24372D01*
G01X37888Y25272D02*
G01X37838Y25222D01*
G01X37788Y25272D01*
G01X37838Y25322D01*
G01X37888Y25272D01*
G01X37838Y24922D02*
G01X37838Y24222D01*
G01X37308Y25272D02*
G01X37308Y24422D01*
G01X37258Y24272D01*
G01X37158Y24222D01*
G01X37058Y24222D01*
G01X37458Y24922D02*
G01X37108Y24922D01*
G01X36728Y25272D02*
G01X36728Y24222D01*
G01X36728Y24722D02*
G01X36578Y24872D01*
G01X36478Y24922D01*
G01X36328Y24922D01*
G01X36228Y24872D01*
G01X36178Y24722D01*
G01X36178Y24222D01*
G01X35848Y24922D02*
G01X35848Y24422D01*
G01X35798Y24272D01*
G01X35698Y24222D01*
G01X35548Y24222D01*
G01X35448Y24272D01*
G01X35298Y24422D01*
G01X35298Y24922D02*
G01X35298Y24222D01*
G01X34968Y25272D02*
G01X34968Y24222D01*
G01X34968Y24772D02*
G01X34868Y24872D01*
G01X34768Y24922D01*
G01X34618Y24922D01*
G01X34518Y24872D01*
G01X34418Y24772D01*
G01X34368Y24622D01*
G01X34368Y24522D01*
G01X34418Y24372D01*
G01X34518Y24272D01*
G01X34618Y24222D01*
G01X34768Y24222D01*
G01X34868Y24272D01*
G01X34968Y24372D01*
G01X33988Y24472D02*
G01X34038Y24422D01*
G01X33988Y24372D01*
G01X33938Y24422D01*
G01X33988Y24472D01*
G01X33008Y24772D02*
G01X33108Y24872D01*
G01X33208Y24922D01*
G01X33358Y24922D01*
G01X33458Y24872D01*
G01X33558Y24772D01*
G01X33608Y24622D01*
G01X33608Y24522D01*
G01X33558Y24372D01*
G01X33458Y24272D01*
G01X33358Y24222D01*
G01X33208Y24222D01*
G01X33108Y24272D01*
G01X33008Y24372D01*
G01X32428Y24922D02*
G01X32528Y24872D01*
G01X32628Y24772D01*
G01X32678Y24622D01*
G01X32678Y24522D01*
G01X32628Y24372D01*
G01X32528Y24272D01*
G01X32428Y24222D01*
G01X32278Y24222D01*
G01X32178Y24272D01*
G01X32078Y24372D01*
G01X32028Y24522D01*
G01X32028Y24622D01*
G01X32078Y24772D01*
G01X32178Y24872D01*
G01X32278Y24922D01*
G01X32428Y24922D01*
G01X31698Y24922D02*
G01X31698Y24222D01*
G01X31698Y24722D02*
G01X31548Y24872D01*
G01X31448Y24922D01*
G01X31298Y24922D01*
G01X31198Y24872D01*
G01X31148Y24722D01*
G01X31148Y24222D01*
G01X31148Y24722D02*
G01X30998Y24872D01*
G01X30898Y24922D01*
G01X30748Y24922D01*
G01X30648Y24872D01*
G01X30598Y24722D01*
G01X30598Y24222D01*
G01X29368Y25472D02*
G01X30268Y23872D01*
G01X29038Y24622D02*
G01X28438Y24622D01*
G01X28438Y24722D01*
G01X28488Y24822D01*
G01X28538Y24872D01*
G01X28638Y24922D01*
G01X28788Y24922D01*
G01X28888Y24872D01*
G01X28988Y24772D01*
G01X29038Y24622D01*
G01X29038Y24522D01*
G01X28988Y24372D01*
G01X28888Y24272D01*
G01X28788Y24222D01*
G01X28638Y24222D01*
G01X28538Y24272D01*
G01X28438Y24372D01*
G01X27558Y24772D02*
G01X27608Y24872D01*
G01X27758Y24922D01*
G01X27908Y24922D01*
G01X28058Y24872D01*
G01X28108Y24772D01*
G01X28058Y24672D01*
G01X27958Y24622D01*
G01X27708Y24572D01*
G01X27608Y24522D01*
G01X27558Y24422D01*
G01X27558Y24372D01*
G01X27608Y24272D01*
G01X27758Y24222D01*
G01X27908Y24222D01*
G01X28058Y24272D01*
G01X28108Y24372D01*
G01X27228Y24922D02*
G01X27228Y23872D01*
G01X27228Y24772D02*
G01X27128Y24872D01*
G01X27028Y24922D01*
G01X26878Y24922D01*
G01X26778Y24872D01*
G01X26678Y24772D01*
G01X26628Y24622D01*
G01X26628Y24522D01*
G01X26678Y24372D01*
G01X26778Y24272D01*
G01X26878Y24222D01*
G01X27028Y24222D01*
G01X27128Y24272D01*
G01X27228Y24372D01*
G01X26298Y24922D02*
G01X26298Y24222D01*
G01X26298Y24622D02*
G01X26248Y24772D01*
G01X26148Y24872D01*
G01X26048Y24922D01*
G01X25898Y24922D01*
G01X25168Y25272D02*
G01X25268Y25272D01*
G01X25368Y25222D01*
G01X25418Y25072D01*
G01X25418Y24222D01*
G01X25568Y24922D02*
G01X25218Y24922D01*
G01X24838Y25272D02*
G01X24788Y25222D01*
G01X24738Y25272D01*
G01X24788Y25322D01*
G01X24838Y25272D01*
G01X24788Y24922D02*
G01X24788Y24222D01*
G01X23808Y25272D02*
G01X23808Y24222D01*
G01X23808Y24772D02*
G01X23908Y24872D01*
G01X24008Y24922D01*
G01X24158Y24922D01*
G01X24258Y24872D01*
G01X24358Y24772D01*
G01X24408Y24622D01*
G01X24408Y24522D01*
G01X24358Y24372D01*
G01X24258Y24272D01*
G01X24158Y24222D01*
G01X24008Y24222D01*
G01X23908Y24272D01*
G01X23808Y24372D01*
G01X22578Y25472D02*
G01X23478Y23872D01*
G01X22248Y24622D02*
G01X21648Y24622D01*
G01X21648Y24722D01*
G01X21698Y24822D01*
G01X21748Y24872D01*
G01X21848Y24922D01*
G01X21998Y24922D01*
G01X22098Y24872D01*
G01X22198Y24772D01*
G01X22248Y24622D01*
G01X22248Y24522D01*
G01X22198Y24372D01*
G01X22098Y24272D01*
G01X21998Y24222D01*
G01X21848Y24222D01*
G01X21748Y24272D01*
G01X21648Y24372D01*
G01X20768Y24772D02*
G01X20818Y24872D01*
G01X20968Y24922D01*
G01X21118Y24922D01*
G01X21268Y24872D01*
G01X21318Y24772D01*
G01X21268Y24672D01*
G01X21168Y24622D01*
G01X20918Y24572D01*
G01X20818Y24522D01*
G01X20768Y24422D01*
G01X20768Y24372D01*
G01X20818Y24272D01*
G01X20968Y24222D01*
G01X21118Y24222D01*
G01X21268Y24272D01*
G01X21318Y24372D01*
G01X20438Y24922D02*
G01X20438Y23872D01*
G01X20438Y24772D02*
G01X20338Y24872D01*
G01X20238Y24922D01*
G01X20088Y24922D01*
G01X19988Y24872D01*
G01X19888Y24772D01*
G01X19838Y24622D01*
G01X19838Y24522D01*
G01X19888Y24372D01*
G01X19988Y24272D01*
G01X20088Y24222D01*
G01X20238Y24222D01*
G01X20338Y24272D01*
G01X20438Y24372D01*
G01X19508Y24672D02*
G01X18608Y24672D01*
G01X18278Y24922D02*
G01X18278Y24222D01*
G01X18278Y24622D02*
G01X18228Y24772D01*
G01X18128Y24872D01*
G01X18028Y24922D01*
G01X17878Y24922D01*
G01X17148Y25272D02*
G01X17248Y25272D01*
G01X17348Y25222D01*
G01X17398Y25072D01*
G01X17398Y24222D01*
G01X17548Y24922D02*
G01X17198Y24922D01*
G01X16818Y25272D02*
G01X16768Y25222D01*
G01X16718Y25272D01*
G01X16768Y25322D01*
G01X16818Y25272D01*
G01X16768Y24922D02*
G01X16768Y24222D01*
G01X15788Y25272D02*
G01X15788Y24222D01*
G01X15788Y24772D02*
G01X15888Y24872D01*
G01X15988Y24922D01*
G01X16138Y24922D01*
G01X16238Y24872D01*
G01X16338Y24772D01*
G01X16388Y24622D01*
G01X16388Y24522D01*
G01X16338Y24372D01*
G01X16238Y24272D01*
G01X16138Y24222D01*
G01X15988Y24222D01*
G01X15888Y24272D01*
G01X15788Y24372D01*
G01X14558Y25472D02*
G01X15458Y23872D01*
M00*
M02*
